<svg width="446" height="446" viewBox="0 0 446 446" fill="none" xmlns="http://www.w3.org/2000/svg">
<g opacity="0.03">
<path fill-rule="evenodd" clip-rule="evenodd" d="M225.132 8.99779C171.403 8.45877 119.438 28.2956 79.5527 64.57C39.6678 100.844 14.7801 150.904 9.83064 204.809C4.88122 258.715 20.2321 312.524 52.8354 355.555C84.5325 397.389 134.78 426.78 185.922 436.98C188.349 437.464 189.977 439.786 189.55 442.226C189.121 444.674 186.789 446.313 184.355 445.829C131.015 435.233 78.797 404.63 45.7452 361.008C11.7834 316.184 -4.20706 260.133 0.948584 203.981C6.10423 147.83 32.029 95.6847 73.5757 57.8989C115.122 20.1131 169.253 -0.55033 225.22 0.0111495C281.188 0.572629 334.899 22.3179 375.691 60.9298C416.483 99.5417 441.372 152.196 445.417 208.44C449.461 264.684 432.366 320.404 397.525 364.537C363.618 407.488 315.316 436.408 261.776 445.932C259.334 446.366 257.035 444.681 256.655 442.226C256.276 439.777 257.95 437.488 260.386 437.053C311.72 427.881 358.027 400.132 390.544 358.943C423.992 316.575 440.403 263.084 436.52 209.09C432.637 155.096 408.743 104.547 369.583 67.4797C330.423 30.4123 278.86 9.53681 225.132 8.99779Z" fill="white"/>
<path fill-rule="evenodd" clip-rule="evenodd" d="M294.359 98.12C316.528 98.12 334.499 116.091 334.499 138.26C334.499 158.921 318.889 175.936 298.819 178.155V267.845C318.889 270.064 334.499 287.079 334.499 307.74C334.499 329.909 316.528 347.88 294.359 347.88C284.951 347.88 276.298 344.643 269.455 339.222L227.46 379.1V441.54C227.46 444.003 225.463 446 223 446V446C220.536 446 218.54 444.003 218.54 441.54V374.64L263.092 332.913C257.542 326.028 254.22 317.272 254.22 307.74C254.22 287.079 269.83 270.064 289.899 267.845V178.155C271.294 176.098 256.521 161.326 254.464 142.72H191.535C189.478 161.325 174.705 176.098 156.1 178.155V267.845C176.169 270.064 191.78 287.079 191.78 307.74C191.78 329.909 173.808 347.88 151.64 347.88C129.471 347.88 111.5 329.909 111.5 307.74C111.5 287.079 127.11 270.064 147.18 267.845V178.155C127.11 175.936 111.5 158.921 111.5 138.26C111.5 116.091 129.471 98.12 151.64 98.12C172.301 98.12 189.316 113.73 191.535 133.8H254.464C256.683 113.73 273.698 98.12 294.359 98.12ZM294.359 168.955C311.312 168.955 325.055 155.213 325.055 138.26C325.055 121.307 311.312 107.565 294.359 107.565C277.407 107.565 263.664 121.307 263.664 138.26C263.664 155.213 277.407 168.955 294.359 168.955ZM151.64 338.96C168.882 338.96 182.86 324.982 182.86 307.74C182.86 290.498 168.882 276.52 151.64 276.52C134.397 276.52 120.42 290.498 120.42 307.74C120.42 324.982 134.397 338.96 151.64 338.96Z" fill="white"/>
</g>
</svg>
