<svg width="40" height="40" viewBox="0 0 40 40" fill="none" xmlns="http://www.w3.org/2000/svg">
<path d="M11.25 13.3333H28.75C29.0815 13.3333 29.3995 13.1577 29.6339 12.8452C29.8683 12.5326 30 12.1087 30 11.6667C30 11.2246 29.8683 10.8007 29.6339 10.4882C29.3995 10.1756 29.0815 10 28.75 10H11.25C10.9185 10 10.6005 10.1756 10.3661 10.4882C10.1317 10.8007 10 11.2246 10 11.6667C10 12.1087 10.1317 12.5326 10.3661 12.8452C10.6005 13.1577 10.9185 13.3333 11.25 13.3333Z" fill="#F8FEFE"/>
<path d="M5.41665 26.6665H34.5833C35.1358 26.6665 35.6658 26.8421 36.0565 27.1547C36.4472 27.4672 36.6666 27.8911 36.6666 28.3332C36.6666 28.7752 36.4472 29.1991 36.0565 29.5117C35.6658 29.8242 35.1358 29.9998 34.5833 29.9998H5.41665C4.86411 29.9998 4.33421 29.8242 3.94351 29.5117C3.55281 29.1991 3.33331 28.7752 3.33331 28.3332C3.33331 27.8911 3.55281 27.4672 3.94351 27.1547C4.33421 26.8421 4.86411 26.6665 5.41665 26.6665Z" fill="#F8FEFE"/>
<path d="M8.33335 18.3335H31.6667C32.1087 18.3335 32.5326 18.5091 32.8452 18.8216C33.1578 19.1342 33.3334 19.5581 33.3334 20.0002C33.3334 20.4422 33.1578 20.8661 32.8452 21.1787C32.5326 21.4912 32.1087 21.6668 31.6667 21.6668H8.33335C7.89133 21.6668 7.4674 21.4912 7.15484 21.1787C6.84228 20.8661 6.66669 20.4422 6.66669 20.0002C6.66669 19.5581 6.84228 19.1342 7.15484 18.8216C7.4674 18.5091 7.89133 18.3335 8.33335 18.3335Z" fill="#8AD6F0"/>
</svg>
