<svg width="40" height="40" viewBox="0 0 40 40" fill="none" xmlns="http://www.w3.org/2000/svg">
<g clip-path="url(#clip0_3786_7611)">
<path d="M20 40C31.0457 40 40 31.0457 40 20C40 8.95431 31.0457 0 20 0C8.95431 0 0 8.95431 0 20C0 31.0457 8.95431 40 20 40Z" fill="#665CAC"/>
<path d="M22.1053 9.47363H17.8948C15.9406 9.47363 14.0664 10.2499 12.6845 11.6318C11.3027 13.0136 10.5264 14.8878 10.5264 16.8421V19.9999C10.5258 21.3948 10.9211 22.7613 11.6665 23.9403C12.4119 25.1194 13.4766 26.0627 14.7369 26.6605V30.1789C14.7382 30.2475 14.7594 30.3143 14.7981 30.371C14.8367 30.4278 14.8911 30.472 14.9546 30.4982C15.018 30.5245 15.0877 30.5317 15.1551 30.5189C15.2226 30.5061 15.2848 30.4739 15.3343 30.4263L18.3922 27.3684H22.1053C24.0595 27.3684 25.9337 26.5921 27.3156 25.2102C28.6974 23.8284 29.4737 21.9542 29.4737 19.9999V16.8421C29.4737 14.8878 28.6974 13.0136 27.3156 11.6318C25.9337 10.2499 24.0595 9.47363 22.1053 9.47363ZM24.8632 23.2842L23.8106 24.3368C22.6895 25.4342 19.7632 24.1815 17.1843 21.5473C14.6053 18.9131 13.4737 15.9578 14.5527 14.8605L15.6053 13.8078C15.8116 13.6227 16.0799 13.5215 16.3571 13.5245C16.6343 13.5274 16.9003 13.6341 17.1027 13.8236L18.6395 15.4026C18.7616 15.5285 18.8496 15.6835 18.8953 15.8528C18.941 16.0221 18.9429 16.2003 18.9008 16.3706C18.8587 16.5408 18.774 16.6976 18.6546 16.8261C18.5353 16.9546 18.3852 17.0507 18.2185 17.1052C17.9714 17.181 17.763 17.3491 17.6366 17.5745C17.5101 17.7999 17.4754 18.0654 17.5395 18.3157C17.8027 19.4842 19.2869 20.9473 20.3922 21.2342C20.6413 21.2935 20.9036 21.26 21.1298 21.1399C21.3561 21.0197 21.5307 20.8212 21.6211 20.5815C21.6795 20.4144 21.7799 20.265 21.9127 20.1479C22.0455 20.0308 22.2062 19.9498 22.3794 19.9128C22.5526 19.8758 22.7323 19.884 22.9014 19.9366C23.0705 19.9892 23.2232 20.0844 23.3448 20.2131L24.879 21.7921C25.0633 21.9978 25.1638 22.265 25.1609 22.5412C25.158 22.8173 25.0518 23.0824 24.8632 23.2842ZM20.9579 14.4736C20.8533 14.4731 20.7487 14.4793 20.6448 14.4921C20.5523 14.5022 20.4596 14.4751 20.3871 14.4169C20.3145 14.3587 20.2681 14.274 20.2579 14.1815C20.2478 14.0891 20.2749 13.9963 20.3331 13.9238C20.3913 13.8512 20.476 13.8048 20.5685 13.7947C20.6978 13.7798 20.8278 13.7728 20.9579 13.7736C21.8892 13.7729 22.7827 14.142 23.442 14.7998C24.1012 15.4576 24.4723 16.3502 24.4737 17.2815C24.4746 17.4117 24.4676 17.5417 24.4527 17.671C24.4477 17.7168 24.4337 17.7611 24.4115 17.8015C24.3894 17.8419 24.3595 17.8775 24.3236 17.9064C24.2877 17.9352 24.2464 17.9567 24.2022 17.9696C24.158 17.9825 24.1116 17.9865 24.0658 17.9815C24.0201 17.9765 23.9757 17.9625 23.9353 17.9404C23.8949 17.9182 23.8593 17.8883 23.8305 17.8524C23.8016 17.8165 23.7801 17.7752 23.7673 17.731C23.7544 17.6868 23.7503 17.6405 23.7553 17.5947C23.7668 17.4907 23.7729 17.3862 23.7737 17.2815C23.7723 16.5359 23.475 15.8213 22.947 15.2948C22.419 14.7683 21.7036 14.4729 20.9579 14.4736ZM23.0632 17.2815C23.0556 17.3695 23.0153 17.4513 22.9502 17.511C22.8852 17.5706 22.8001 17.6037 22.7119 17.6037C22.6236 17.6037 22.5386 17.5706 22.4735 17.511C22.4085 17.4513 22.3682 17.3695 22.3606 17.2815C22.3606 16.9095 22.2128 16.5528 21.9498 16.2897C21.6867 16.0267 21.3299 15.8789 20.9579 15.8789C20.9093 15.8831 20.8602 15.8772 20.814 15.8614C20.7677 15.8457 20.7252 15.8205 20.6892 15.7875C20.6531 15.7544 20.6244 15.7143 20.6047 15.6695C20.585 15.6248 20.5749 15.5765 20.5749 15.5276C20.5749 15.4787 20.585 15.4304 20.6047 15.3856C20.6244 15.3409 20.6531 15.3007 20.6892 15.2677C20.7252 15.2347 20.7677 15.2095 20.814 15.1937C20.8602 15.178 20.9093 15.172 20.9579 15.1763C21.5163 15.1763 22.0518 15.3981 22.4466 15.7929C22.8414 16.1877 23.0632 16.7232 23.0632 17.2815ZM25.7395 18.421C25.7317 18.4688 25.7142 18.5146 25.6879 18.5553C25.6617 18.5961 25.6273 18.631 25.587 18.6578C25.5467 18.6847 25.5012 18.703 25.4535 18.7115C25.4058 18.72 25.3568 18.7186 25.3097 18.7074C25.2625 18.6961 25.2182 18.6753 25.1795 18.6462C25.1407 18.617 25.1084 18.5802 25.0846 18.538C25.0607 18.4958 25.0458 18.4492 25.0407 18.401C25.0357 18.3528 25.0407 18.304 25.0553 18.2578C25.1313 17.9398 25.1693 17.6138 25.1685 17.2868C25.1685 16.1701 24.7249 15.0991 23.9352 14.3095C23.1456 13.5199 22.0746 13.0763 20.9579 13.0763H20.6316C20.5857 13.0797 20.5395 13.0741 20.4957 13.0597C20.4519 13.0453 20.4114 13.0224 20.3764 12.9924C20.3059 12.9317 20.2623 12.8454 20.2553 12.7526C20.2483 12.6598 20.2785 12.568 20.3392 12.4974C20.3999 12.4268 20.4862 12.3832 20.579 12.3763C20.7053 12.3657 20.8316 12.3605 20.9579 12.3605C22.2617 12.3626 23.5114 12.882 24.4326 13.8046C25.3537 14.7273 25.8711 15.9777 25.8711 17.2815C25.8712 17.6651 25.8271 18.0475 25.7395 18.421Z" fill="white"/>
</g>
<defs>
<clipPath id="clip0_3786_7611">
<rect width="40" height="40" fill="white"/>
</clipPath>
</defs>
</svg>
