<svg width="44" height="30" viewBox="0 0 44 30" fill="none" xmlns="http://www.w3.org/2000/svg">
<g clip-path="url(#clip0_3786_7613)">
<path d="M42.3836 4.67917C42.1369 3.77476 41.6558 2.95024 40.9882 2.28771C40.3205 1.62519 39.4896 1.14777 38.5781 0.903C35.2412 0 21.8114 0 21.8114 0C21.8114 0 8.381 0.0273333 5.04414 0.930333C4.13265 1.17512 3.3017 1.65256 2.63403 2.31512C1.96635 2.97768 1.48525 3.80223 1.23864 4.70667C0.229312 10.5897 -0.162224 19.554 1.26635 25.2017C1.51299 26.1061 1.9941 26.9306 2.66178 27.5931C3.32945 28.2556 4.16039 28.7331 5.07185 28.9778C8.40872 29.8808 21.8388 29.8808 21.8388 29.8808C21.8388 29.8808 35.2688 29.8808 38.6055 28.9778C39.517 28.7331 40.3479 28.2557 41.0156 27.5932C41.6833 26.9306 42.1645 26.1061 42.4111 25.2017C43.4757 19.3103 43.8038 10.3515 42.3836 4.67917Z" fill="#FF0000"/>
<path d="M17.5364 21.3431L28.6774 14.9401L17.5364 8.53711V21.3431Z" fill="white"/>
</g>
<defs>
<clipPath id="clip0_3786_7613">
<rect width="43" height="30" fill="white" transform="translate(0.333252)"/>
</clipPath>
</defs>
</svg>
