<svg width="50" height="50" viewBox="0 0 50 50" fill="none" xmlns="http://www.w3.org/2000/svg">
<g clip-path="url(#clip0_3786_7622)">
<path d="M43.2617 35.7939V47.4552C43.2604 47.8966 43.0846 48.3196 42.7727 48.6317C42.4608 48.9438 42.0382 49.1198 41.5971 49.1211H8.30522C7.86415 49.1198 7.44152 48.9438 7.12963 48.6317C6.81774 48.3196 6.64194 47.8966 6.64062 47.4552V35.7939L7.47292 34.9609H42.4294L43.2617 35.7939Z" fill="#FE4143"/>
<path d="M19.302 43.5832H17.5568V42.3768H19.302C19.5595 42.3768 19.7661 42.3339 19.9219 42.248C20.0808 42.1622 20.1969 42.0446 20.27 41.8952C20.3463 41.7426 20.3844 41.5709 20.3844 41.3802C20.3844 41.1831 20.3463 41.0003 20.27 40.8318C20.1969 40.6602 20.0808 40.5219 19.9219 40.417C19.7661 40.3121 19.5595 40.2596 19.302 40.2596H18.1194V45.996H16.5649V39.0532H19.302C19.8551 39.0532 20.3288 39.1534 20.723 39.3536C21.1203 39.5539 21.4239 39.8289 21.6337 40.1786C21.8467 40.5251 21.9532 40.9224 21.9532 41.3707C21.9532 41.8189 21.8467 42.2083 21.6337 42.5389C21.4239 42.8695 21.1203 43.127 20.723 43.3114C20.3288 43.4926 19.8551 43.5832 19.302 43.5832Z" fill="#F8FEFE"/>
<path d="M25.0956 45.996H23.5697L23.5792 44.7943H25.0956C25.4421 44.7943 25.7345 44.7149 25.9729 44.5559C26.2114 44.3938 26.3926 44.1554 26.5165 43.8407C26.6405 43.5228 26.7025 43.1365 26.7025 42.682V42.3625C26.7025 42.0191 26.6675 41.7172 26.5976 41.4565C26.5277 41.1926 26.4243 40.9717 26.2877 40.7937C26.151 40.6157 25.9809 40.4821 25.7774 40.3931C25.5772 40.3041 25.3467 40.2596 25.086 40.2596H23.5411V39.0532H25.086C25.5565 39.0532 25.9857 39.1327 26.3735 39.2916C26.7645 39.4506 27.1015 39.6779 27.3844 39.9735C27.6705 40.2692 27.8914 40.6188 28.0472 41.0226C28.2029 41.4263 28.2808 41.8761 28.2808 42.372V42.682C28.2808 43.1747 28.2029 43.6245 28.0472 44.0314C27.8914 44.4351 27.6705 44.7848 27.3844 45.0804C27.1015 45.3729 26.7661 45.5986 26.3783 45.7576C25.9904 45.9165 25.5629 45.996 25.0956 45.996ZM24.4518 39.0532V45.996H22.8973V39.0532H24.4518Z" fill="#F8FEFE"/>
<path d="M30.7842 39.0532V45.996H29.2297V39.0532H30.7842ZM33.5165 41.981V43.1826H30.3503V41.981H33.5165ZM33.8217 39.0532V40.2596H30.3503V39.0532H33.8217Z" fill="#F8FEFE"/>
<path d="M43.2613 11.6028V35.7422H6.64062V2.44647C6.64194 2.00535 6.81774 1.58267 7.12962 1.27075C7.44151 0.958823 7.86413 0.783003 8.3052 0.781686H32.4415C32.4972 0.780091 32.5528 0.782875 32.608 0.79001C33.1065 0.796356 33.5988 0.901936 34.056 1.10059C34.5133 1.29924 34.9264 1.58699 35.2713 1.94704L42.0961 8.77266C42.4561 9.11759 42.7438 9.53077 42.9424 9.9881C43.1411 10.4454 43.2466 10.9377 43.253 11.4363C43.2601 11.4915 43.2629 11.5472 43.2613 11.6028Z" fill="#E8EDF3"/>
<path d="M16.5197 30.5349C16.2089 30.5349 15.9107 30.434 15.6563 30.2439C14.7268 29.5465 14.6018 28.7706 14.6607 28.2421C14.8232 26.7885 16.6206 25.2671 20.0045 23.7171C21.3473 20.7742 22.625 17.1483 23.3866 14.1189C22.4956 12.1796 21.6295 9.6635 22.2607 8.18761C22.4822 7.67065 22.7581 7.27422 23.2732 7.10279C23.5694 7.01992 23.8734 6.96845 24.1804 6.94922C24.6304 6.94922 25.0259 7.52868 25.3063 7.88583C25.5697 8.22154 26.167 8.93315 24.9732 13.959C26.1768 16.4448 27.8822 18.9769 29.5161 20.7108C30.6866 20.4992 31.6938 20.3912 32.5143 20.3912C33.9125 20.3912 34.7598 20.7171 35.1054 21.3885C35.3911 21.9439 35.2741 22.593 34.7572 23.3171C34.2598 24.0126 33.5741 24.3805 32.775 24.3805C31.6893 24.3805 30.425 23.6948 29.0152 22.3403C26.4822 22.8698 23.5241 23.8144 21.1331 24.8599C20.3866 26.4439 19.6714 27.7198 19.0054 28.6555C18.0902 29.9367 17.3009 30.5349 16.5197 30.5349ZM18.8964 25.9582C16.9884 27.0305 16.2107 27.9117 16.1545 28.4082C16.1456 28.4903 16.1214 28.7064 16.5393 29.026C16.6723 28.984 17.4491 28.6296 18.8964 25.9582ZM31.0723 21.9921C31.8 22.5519 31.9777 22.8349 32.4536 22.8349C32.6625 22.8349 33.2581 22.826 33.5339 22.4412C33.667 22.2546 33.7188 22.1349 33.7393 22.0707C33.6295 22.0126 33.4839 21.8948 32.6902 21.8948C32.2393 21.8956 31.6723 21.9153 31.0723 21.9921ZM24.4027 16.1153C23.7343 18.4095 22.9372 20.6643 22.0152 22.8689C23.9053 22.1366 25.8431 21.534 27.8152 21.0653C26.6098 19.6653 25.4054 17.9171 24.4027 16.1153ZM23.8607 8.55993C23.7732 8.5894 22.6732 10.1287 23.9464 11.4314C24.7938 9.54297 23.8991 8.54743 23.8607 8.55993Z" fill="#CC4B4C"/>
<path d="M43.2617 11.4258C43.2194 11.0156 43.0268 10.6357 42.721 10.3591C42.4152 10.0825 42.0179 9.92883 41.6055 9.92772H36.612C35.9498 9.92772 35.3148 9.66467 34.8465 9.19644C34.3783 8.72821 34.1152 8.09314 34.1152 7.43096V2.43744C34.1141 2.02511 33.9605 1.62779 33.6839 1.322C33.4073 1.01621 33.0273 0.823591 32.6172 0.78125C33.1157 0.787595 33.6079 0.893158 34.0652 1.09178C34.5224 1.2904 34.9355 1.57809 35.2804 1.93808L42.1049 8.76257C42.4649 9.10744 42.7526 9.52056 42.9512 9.97781C43.1498 10.4351 43.2554 10.9273 43.2617 11.4258Z" fill="#BFCEDD"/>
</g>
<defs>
<clipPath id="clip0_3786_7622">
<rect width="50" height="50" fill="white"/>
</clipPath>
</defs>
</svg>
