<svg width="64" height="64" viewBox="0 0 64 64" fill="none" xmlns="http://www.w3.org/2000/svg">
<rect width="64" height="64" rx="5" fill="#33C078"/>
<path d="M39.5 31.13L25.5 23.05C25.348 22.9622 25.1755 22.916 25 22.916C24.8245 22.916 24.652 22.9622 24.5 23.05C24.3474 23.1381 24.2208 23.265 24.133 23.4177C24.0452 23.5705 23.9993 23.7438 24 23.92V40.08C23.9993 40.2562 24.0452 40.4295 24.133 40.5822C24.2208 40.735 24.3474 40.8619 24.5 40.95C24.652 41.0378 24.8245 41.084 25 41.084C25.1755 41.084 25.348 41.0378 25.5 40.95L39.5 32.87C39.6539 32.7828 39.7819 32.6563 39.871 32.5035C39.96 32.3506 40.007 32.1769 40.007 32C40.007 31.8231 39.96 31.6494 39.871 31.4965C39.7819 31.3437 39.6539 31.2172 39.5 31.13ZM26 38.35V25.65L37 32L26 38.35Z" fill="#F8FEFE"/>
</svg>
